HIERARCHY
ROOT Hips
{
	OFFSET -0.001795 -0.223333 0.028219
	CHANNELS 6 Xposition Yposition Zposition Zrotation Yrotation Xrotation 
	JOINT LeftUpLeg
	{
		OFFSET 0.069520 -0.091406 -0.006815
		CHANNELS 3 Zrotation Yrotation Xrotation
		JOINT LeftLeg
		{
			OFFSET 0.034277 -0.375199 -0.004496
			CHANNELS 3 Zrotation Yrotation Xrotation
			JOINT LeftFoot
			{
				OFFSET -0.013596 -0.397961 -0.043693
				CHANNELS 3 Zrotation Yrotation Xrotation
				JOINT LeftToe
				{
					OFFSET 0.026358 -0.055791 0.119288
					CHANNELS 3 Zrotation Yrotation Xrotation
					End Site
					{
						OFFSET 0.000000 0.000000 0.000000
					}
				}
			}
		}
	}
	JOINT RightUpLeg
	{
		OFFSET -0.067670 -0.090522 -0.004320
		CHANNELS 3 Zrotation Yrotation Xrotation
		JOINT RightLeg
		{
			OFFSET -0.038290 -0.382569 -0.008850
			CHANNELS 3 Zrotation Yrotation Xrotation
			JOINT RightFoot
			{
				OFFSET 0.015774 -0.398415 -0.042312
				CHANNELS 3 Zrotation Yrotation Xrotation
				JOINT RightToe
				{
					OFFSET -0.025372 -0.048144 0.123348
					CHANNELS 3 Zrotation Yrotation Xrotation
					End Site
					{
						OFFSET 0.000000 0.000000 0.000000
					}
				}
			}
		}
	}
	JOINT Spine
	{
		OFFSET -0.002533 0.108963 -0.026696
		CHANNELS 3 Zrotation Yrotation Xrotation
		JOINT Spine1
		{
			OFFSET 0.005487 0.135180 0.001092
			CHANNELS 3 Zrotation Yrotation Xrotation
			JOINT Spine2
			{
				OFFSET 0.001457 0.052922 0.025425
				CHANNELS 3 Zrotation Yrotation Xrotation
				JOINT Neck
				{
					OFFSET -0.002778 0.213870 -0.042857
					CHANNELS 3 Zrotation Yrotation Xrotation
					JOINT Head
					{
						OFFSET 0.005152 0.064970 0.051349
						CHANNELS 3 Zrotation Yrotation Xrotation
						End Site
						{
							OFFSET 0.000000 0.000000 0.000000
						}
					}
				}
				JOINT LeftShoulder
				{
					OFFSET 0.078845 0.121749 -0.034090
					CHANNELS 3 Zrotation Yrotation Xrotation
					JOINT LeftArm
					{
						OFFSET 0.090977 0.030469 -0.008868
						CHANNELS 3 Zrotation Yrotation Xrotation
						JOINT LeftForeArm
						{
							OFFSET 0.259612 -0.012772 -0.027456
							CHANNELS 3 Zrotation Yrotation Xrotation
							JOINT LeftHand
							{
								OFFSET 0.249234 0.008986 -0.001171
								CHANNELS 3 Zrotation Yrotation Xrotation
								End Site
								{
									OFFSET 0.000000 0.000000 0.000000
								}
							}
						}
					}
				}
				JOINT RightShoulder
				{
					OFFSET -0.081759 0.118833 -0.038615
					CHANNELS 3 Zrotation Yrotation Xrotation
					JOINT RightArm
					{
						OFFSET -0.096012 0.032551 -0.009143
						CHANNELS 3 Zrotation Yrotation Xrotation
						JOINT RightForeArm
						{
							OFFSET -0.253742 -0.013329 -0.021401
							CHANNELS 3 Zrotation Yrotation Xrotation
							JOINT RightHand
							{
								OFFSET -0.255298 0.007772 -0.005559
								CHANNELS 3 Zrotation Yrotation Xrotation
								End Site
								{
									OFFSET 0.000000 0.000000 0.000000
								}
							}
						}
					}
				}
			}
		}
	}
}
MOTION
Frames: 14
Frame Time: 0.050000
-0.025969 0.296705 -0.060754 -8.834165 -39.806819 -27.982066 30.217332 30.040334 -53.986472 -0.402431 -23.279697 155.733359 10.424413 2.300662 -44.899170 0.000000 0.000000 0.000000 -42.905689 0.058895 -59.656664 98.780654 -70.091384 58.761580 -21.702682 -61.457816 -16.435123 0.000000 0.000000 0.000000 18.485354 1.384282 81.998005 11.787864 -7.863741 9.292338 -14.118638 -4.051598 -2.570688 12.791490 -13.407642 9.398394 0.000000 0.000000 0.000000 0.693965 -47.887590 15.437824 -9.553909 -22.550327 0.230054 48.555421 -36.928824 -16.627968 0.000000 0.000000 0.000000 15.726246 38.749487 17.715667 13.360144 15.633943 0.275587 -32.267885 46.719320 -12.356934 0.000000 0.000000 0.000000 
-0.027236 0.297981 -0.059825 -8.915576 -39.989761 -28.360869 30.833011 29.659531 -52.364441 -0.252382 -23.880024 155.961294 10.615478 1.155202 -44.927554 0.000000 0.000000 0.000000 -42.615570 0.173094 -58.950529 94.530619 -70.391331 63.292481 -21.082644 -60.886089 -16.865591 0.000000 0.000000 0.000000 19.085579 1.003983 81.634311 12.123432 -8.227372 10.009687 -14.038473 -3.564263 -2.746683 13.662465 -13.959659 8.486854 0.000000 0.000000 0.000000 0.302727 -47.803963 15.481275 -9.801943 -23.168252 0.312114 50.776683 -37.372981 -17.885330 0.000000 0.000000 0.000000 16.302535 37.915229 17.607597 14.346559 15.064577 0.255475 -33.683477 47.570837 -13.219172 0.000000 0.000000 0.000000 
-0.029054 0.297579 -0.059169 -9.083836 -40.288067 -28.617695 31.197231 29.645133 -51.556311 -0.047553 -25.698539 156.230699 10.775015 -0.535178 -44.920483 0.000000 0.000000 0.000000 -42.504699 0.296134 -58.311101 92.766603 -70.679066 65.371782 -22.089127 -61.083774 -14.963183 0.000000 0.000000 0.000000 19.400947 0.889251 81.336282 12.646851 -8.739574 10.859586 -14.362298 -3.443893 -3.707086 14.018288 -14.381949 8.963367 0.000000 0.000000 0.000000 -0.560343 -47.361908 15.655595 -9.802959 -23.220944 0.355305 53.220674 -37.779394 -19.249878 0.000000 0.000000 0.000000 17.422613 37.154894 17.757581 15.134832 14.802219 0.273187 -35.980434 49.240862 -14.828890 0.000000 0.000000 0.000000 
-0.030895 0.298398 -0.059236 -8.970849 -40.716836 -29.111000 31.510418 29.419768 -50.302560 0.559437 -28.881147 156.151617 11.102609 -2.829140 -45.195266 0.000000 0.000000 0.000000 -42.586999 0.430111 -57.800214 87.278988 -70.927452 71.196595 -22.281961 -59.554071 -13.136709 0.000000 0.000000 0.000000 19.751462 0.858475 80.825595 12.875961 -9.065655 11.912449 -14.288093 -3.543245 -4.181424 14.212443 -14.492764 9.054955 0.000000 0.000000 0.000000 -1.500979 -47.298788 16.006530 -9.566602 -22.758285 0.340696 56.098180 -38.058133 -20.641286 0.000000 0.000000 0.000000 17.408292 36.570037 17.442303 16.068678 15.296727 0.405423 -39.434845 50.378639 -16.964038 0.000000 0.000000 0.000000 
-0.032482 0.299803 -0.060559 -8.501411 -41.522388 -29.516941 31.645457 29.319532 -49.063855 1.663471 -33.719816 155.605356 11.426833 -7.230709 -44.678727 0.000000 0.000000 0.000000 -42.508974 0.785645 -57.752545 88.096935 -70.679170 70.339297 -23.582396 -60.492798 -11.511883 0.000000 0.000000 0.000000 20.480962 0.817281 80.304782 13.316617 -9.432192 12.297872 -14.670488 -4.021116 -3.905172 14.526821 -14.564806 8.659504 0.000000 0.000000 0.000000 -1.438821 -47.046641 15.955177 -10.022781 -22.421996 0.378394 59.313960 -37.563778 -21.765032 0.000000 0.000000 0.000000 17.323424 36.310076 17.143404 16.309176 16.702580 0.613095 -44.594085 50.097186 -19.520549 0.000000 0.000000 0.000000 
-0.034019 0.302629 -0.063351 -8.272876 -42.287493 -29.529584 31.294109 29.190031 -48.568209 2.769806 -36.560136 154.546047 11.788017 -9.437083 -44.915966 0.000000 0.000000 0.000000 -42.283235 1.163387 -58.070595 88.255781 -69.970459 69.807934 -23.694531 -60.747946 -11.580391 0.000000 0.000000 0.000000 20.762679 1.032475 79.985364 13.768664 -9.800608 12.965956 -14.924974 -4.077835 -4.418258 14.500866 -14.300449 8.141781 0.000000 0.000000 0.000000 -1.741679 -47.031937 16.052334 -9.906233 -21.678196 0.366978 62.445571 -37.168746 -22.962221 0.000000 0.000000 0.000000 16.669419 36.215718 16.947630 16.843810 18.158722 0.847503 -49.865220 50.094550 -22.239458 0.000000 0.000000 0.000000 
-0.035560 0.305784 -0.067035 -7.837776 -43.298194 -29.621446 30.909723 29.260140 -48.211701 4.760895 -41.923586 152.685386 12.492697 -14.174306 -45.717076 0.000000 0.000000 0.000000 -42.468819 1.530104 -58.460061 90.781868 -69.265154 66.860185 -25.391025 -61.484893 -9.284395 0.000000 0.000000 0.000000 21.293714 1.217474 80.188605 14.052055 -9.898885 12.487327 -15.238493 -4.352724 -4.043292 14.379076 -14.149887 7.965715 0.000000 0.000000 0.000000 -1.624860 -47.294739 16.099688 -9.650327 -20.362944 0.275024 64.398039 -37.126662 -23.791950 0.000000 0.000000 0.000000 16.166148 36.604943 16.915139 17.082879 19.209639 1.003802 -52.901538 49.795395 -23.736810 0.000000 0.000000 0.000000 
-0.037061 0.309656 -0.071002 -7.748202 -43.751913 -29.496166 30.327101 28.799820 -47.920489 5.860992 -42.605953 151.242757 12.658173 -15.229211 -45.635076 0.000000 0.000000 0.000000 -42.166724 1.756092 -58.291480 93.332802 -68.307225 63.818892 -26.727268 -62.906697 -8.171236 0.000000 0.000000 0.000000 21.536810 1.237671 79.939374 14.251915 -10.177209 13.446455 -15.317931 -4.369916 -4.972042 14.013718 -13.901937 8.522623 0.000000 0.000000 0.000000 -3.302696 -47.707519 16.877111 -8.441409 -18.991371 0.157997 65.271581 -37.915286 -24.613464 0.000000 0.000000 0.000000 16.138216 36.781023 17.112810 16.199249 19.104100 0.935486 -53.739955 49.870631 -24.159777 0.000000 0.000000 0.000000 
-0.038202 0.313373 -0.074368 -7.589614 -44.271773 -29.347646 30.134849 28.620421 -47.442840 7.234563 -44.323575 149.686653 13.232194 -17.281809 -46.550347 0.000000 0.000000 0.000000 -41.925590 2.017348 -58.103808 93.294657 -67.380678 63.401521 -26.316972 -63.515872 -9.342467 0.000000 0.000000 0.000000 21.985588 1.199787 79.522811 14.526270 -10.406288 13.761473 -16.105615 -4.550433 -5.104480 14.067357 -14.054210 8.963061 0.000000 0.000000 0.000000 -4.873582 -48.154874 17.693848 -6.974675 -18.260830 0.021860 65.072626 -38.879042 -25.030143 0.000000 0.000000 0.000000 16.411593 37.476279 17.631370 15.092024 18.189815 0.734723 -53.063088 49.948327 -23.753303 0.000000 0.000000 0.000000 
-0.038690 0.317287 -0.076675 -7.357398 -44.614103 -29.312862 29.779452 28.062269 -46.745165 8.802601 -45.908522 148.020647 13.681733 -19.254069 -47.057795 0.000000 0.000000 0.000000 -41.404085 2.273764 -57.641674 93.024288 -66.824365 63.510366 -27.384190 -64.975345 -8.779487 0.000000 0.000000 0.000000 22.503836 1.016805 78.815212 14.622433 -10.630454 14.705850 -16.663790 -5.082580 -5.841545 13.788183 -14.016724 10.221648 0.000000 0.000000 0.000000 -7.265365 -48.752031 19.037320 -5.949642 -17.245247 -0.066082 65.245097 -40.083175 -25.690474 0.000000 0.000000 0.000000 16.847891 37.983406 18.058458 14.220897 17.091704 0.593675 -51.665649 50.863343 -23.467654 0.000000 0.000000 0.000000 
-0.038612 0.321774 -0.077960 -7.357995 -45.009582 -28.950984 29.399454 27.365699 -45.829908 9.865195 -46.145969 146.985727 14.315122 -19.638121 -48.127958 0.000000 0.000000 0.000000 -40.820729 2.552595 -56.837357 90.673655 -66.274499 65.777751 -25.952321 -66.019679 -11.776893 0.000000 0.000000 0.000000 23.079821 0.850025 77.925050 14.550002 -10.646787 15.351113 -17.067176 -5.546695 -5.979097 14.074769 -14.224899 10.547180 0.000000 0.000000 0.000000 -9.303204 -49.111201 20.193064 -4.942942 -17.758369 -0.142684 64.124904 -40.944565 -25.514550 0.000000 0.000000 0.000000 17.123219 38.565627 18.390111 13.283507 15.400036 0.393813 -49.397685 51.632442 -22.612298 0.000000 0.000000 0.000000 
-0.038233 0.325914 -0.078486 -7.151108 -45.616383 -28.684213 29.252034 27.109798 -45.068438 11.009588 -46.936373 145.907832 14.806277 -20.920573 -48.709405 0.000000 0.000000 0.000000 -40.521697 2.856301 -56.365691 87.768050 -65.851323 68.677400 -24.077763 -66.116612 -14.738145 0.000000 0.000000 0.000000 23.219244 1.092264 76.925455 14.822469 -10.755360 15.326549 -17.611814 -5.767533 -5.540731 14.121942 -14.338722 10.953677 0.000000 0.000000 0.000000 -9.208596 -49.079475 20.289988 -5.664115 -18.627594 -0.099798 64.200949 -41.842698 -26.129282 0.000000 0.000000 0.000000 17.622781 39.211124 18.824330 12.491813 13.826545 0.217810 -47.485424 51.758431 -21.613465 0.000000 0.000000 0.000000 
-0.038044 0.329926 -0.078491 -7.512014 -45.890896 -28.498005 28.588535 26.331145 -44.582553 11.377205 -46.130836 145.619392 14.858485 -19.833277 -48.662918 0.000000 0.000000 0.000000 -39.702080 3.094407 -55.460693 84.647674 -65.399494 71.915068 -23.639014 -65.976914 -14.992364 0.000000 0.000000 0.000000 23.767381 0.859912 75.543479 14.736459 -10.783492 16.292106 -17.245418 -6.337385 -5.627041 14.217865 -14.115870 10.765739 0.000000 0.000000 0.000000 -10.398092 -49.445115 21.240040 -5.875521 -19.557066 -0.083182 63.658722 -42.841333 -26.325078 0.000000 0.000000 0.000000 17.479564 39.420467 18.672291 12.305063 12.348199 0.137643 -45.952539 52.518677 -21.193978 0.000000 0.000000 0.000000 
-0.038103 0.333032 -0.078260 -7.649541 -46.295869 -28.337479 28.753315 25.801866 -43.161790 12.294578 -46.622164 144.917240 15.464796 -21.824370 -49.341886 0.000000 0.000000 0.000000 -39.249408 3.315970 -54.724131 80.885253 -64.900188 75.810945 -22.403238 -65.776436 -16.553095 0.000000 0.000000 0.000000 24.130333 0.857380 74.254464 14.847306 -10.718285 15.848086 -17.244023 -6.886373 -4.299683 14.279897 -13.997753 10.520482 0.000000 0.000000 0.000000 -10.291151 -49.278023 21.356640 -6.583095 -20.767875 -0.044034 62.623265 -43.303376 -26.013342 0.000000 0.000000 0.000000 17.585119 39.540703 18.353108 12.139287 11.271862 0.072168 -44.916031 53.139877 -21.046597 0.000000 0.000000 0.000000 
